<svg xmlns="http://www.w3.org/2000/svg" xmlns:xlink="http://www.w3.org/1999/xlink" viewBox="0,0,256,256" width="48px" height="48px"><defs><linearGradient x1="12.066" y1="0.066" x2="34.891" y2="22.891" gradientUnits="userSpaceOnUse" id="color-1"><stop offset="0.237" stop-color="#9ad8e6"></stop><stop offset="0.85" stop-color="#1591d8"></stop></linearGradient><linearGradient x1="12.066" y1="12.066" x2="34.891" y2="34.891" gradientUnits="userSpaceOnUse" id="color-2"><stop offset="0.237" stop-color="#9ad8e6"></stop><stop offset="0.85" stop-color="#1591d8"></stop></linearGradient><linearGradient x1="12.066" y1="24.066" x2="34.891" y2="46.891" gradientUnits="userSpaceOnUse" id="color-3"><stop offset="0.237" stop-color="#9ad8e6"></stop><stop offset="0.85" stop-color="#1591d8"></stop></linearGradient></defs><g transform=""><g fill-opacity="0" fill="#ffffff" fill-rule="nonzero" stroke="none" stroke-width="1" stroke-linecap="butt" stroke-linejoin="miter" stroke-miterlimit="10" stroke-dasharray="" stroke-dashoffset="0" font-family="none" font-weight="none" font-size="none" text-anchor="none" style="mix-blend-mode: normal"><path d="M0,256v-256h256v256z" id="bgRectangle"></path></g><g fill="none" fill-rule="nonzero" stroke="#339af0" stroke-width="5.33333" stroke-linecap="butt" stroke-linejoin="miter" stroke-miterlimit="10" stroke-dasharray="" stroke-dashoffset="0" font-family="none" font-weight="none" font-size="none" text-anchor="none" style="mix-blend-mode: normal"><path d="M65.75076,252.49848c-34.37931,0 -62.24924,-27.86993 -62.24924,-62.24924v-124.49848c0,-34.37931 27.86993,-62.24924 62.24924,-62.24924h124.49848c34.37931,0 62.24924,27.86993 62.24924,62.24924v124.49848c0,34.37931 -27.86993,62.24924 -62.24924,62.24924z" id="shape"></path></g><g fill="none" fill-rule="nonzero" stroke="none" stroke-width="1" stroke-linecap="butt" stroke-linejoin="none" stroke-miterlimit="10" stroke-dasharray="" stroke-dashoffset="0" font-family="none" font-weight="none" font-size="none" text-anchor="none" style="mix-blend-mode: normal"><path transform="scale(5.33333,5.33333)" d="M43,15h-38c-1.1,0 -2,-0.9 -2,-2v-2c0,-1.1 0.9,-2 2,-2h38c1.1,0 2,0.9 2,2v2c0,1.1 -0.9,2 -2,2zM43,27h-38c-1.1,0 -2,-0.9 -2,-2v-2c0,-1.1 0.9,-2 2,-2h38c1.1,0 2,0.9 2,2v2c0,1.1 -0.9,2 -2,2zM43,39h-38c-1.1,0 -2,-0.9 -2,-2v-2c0,-1.1 0.9,-2 2,-2h38c1.1,0 2,0.9 2,2v2c0,1.1 -0.9,2 -2,2z" id="strokeMainSVG" fill="#dddddd" stroke="#dddddd" stroke-linejoin="round"></path><g transform="scale(5.33333,5.33333)" stroke="none" stroke-linejoin="miter"><path d="M43,15h-38c-1.1,0 -2,-0.9 -2,-2v-2c0,-1.1 0.9,-2 2,-2h38c1.1,0 2,0.9 2,2v2c0,1.1 -0.9,2 -2,2z" fill="url(#color-1)"></path><path d="M43,27h-38c-1.1,0 -2,-0.9 -2,-2v-2c0,-1.1 0.9,-2 2,-2h38c1.1,0 2,0.9 2,2v2c0,1.1 -0.9,2 -2,2z" fill="url(#color-2)"></path><path d="M43,39h-38c-1.1,0 -2,-0.9 -2,-2v-2c0,-1.1 0.9,-2 2,-2h38c1.1,0 2,0.9 2,2v2c0,1.1 -0.9,2 -2,2z" fill="url(#color-3)"></path></g></g></g></svg>