<?xml version="1.0" encoding="UTF-8" standalone="no"?>
<svg
   version="1.1"
   x="0px"
   y="0px"
   viewBox="0 0 100 17.700001"
   enable-background="new 0 0 100 100"
   xml:space="preserve"
   id="svg10"
   sodipodi:docname="noun-diamond-line-embellishment-181248.svg"
   width="100"
   height="17.700001"
   xmlns:inkscape="http://www.inkscape.org/namespaces/inkscape"
   xmlns:sodipodi="http://sodipodi.sourceforge.net/DTD/sodipodi-0.dtd"
   xmlns="http://www.w3.org/2000/svg"
   xmlns:svg="http://www.w3.org/2000/svg"><defs
     id="defs14"><clipPath
       clipPathUnits="userSpaceOnUse"
       id="clipPath430"><rect
         style="fill:#000000"
         id="rect432"
         width="94.393005"
         height="15.174897"
         x="5.6584363"
         y="42.438271" /></clipPath><clipPath
       clipPathUnits="userSpaceOnUse"
       id="clipPath434"><rect
         style="fill:#000000"
         id="rect436"
         width="94.393005"
         height="15.174897"
         x="5.6584363"
         y="42.438271" /></clipPath></defs><sodipodi:namedview
     id="namedview12"
     pagecolor="#ffffff"
     bordercolor="#000000"
     borderopacity="0.25"
     inkscape:showpageshadow="2"
     inkscape:pageopacity="0.0"
     inkscape:pagecheckerboard="0"
     inkscape:deskcolor="#d1d1d1"
     showgrid="false"
     inkscape:zoom="7.776"
     inkscape:cx="26.427469"
     inkscape:cy="61.085391"
     inkscape:window-width="1390"
     inkscape:window-height="1122"
     inkscape:window-x="0"
     inkscape:window-y="25"
     inkscape:window-maximized="0"
     inkscape:current-layer="svg10" /><path
     fill="#000000"
     d="m 43.75,43.555 c 0,2.021 -2.504,4.955 -4.83,6.137 -0.885,-0.395 -1.612,-0.931 -1.612,-1.337 0,0.493 -1.058,1.174 -2.184,1.562 -1.591,-0.09 -3.183,-0.143 -4.774,-0.198 -2.675,-0.064 -5.486,0.047 -8.161,0.1 C 16.837,49.908 12,50.024 6.0000003,50.169 v 0.1 C 12,50.414 16.837,50.531 22.188,50.619 c 2.675,0.055 5.418,0.166 8.093,0.1 1.59,-0.053 3.215,-0.106 4.806,-0.196 1.127,0.388 2.204,1.07 2.204,1.563 0,-0.407 0.735,-0.943 1.62,-1.337 2.326,1.182 4.835,4.117 4.835,6.137 0,-2.58 4.088,-6.665 6.668,-6.665 C 47.833,50.22 43.75,46.135 43.75,43.555 Z"
     id="path2"
     clip-path="url(#clipPath434)"
     transform="translate(-1.5432099,-41.280864)" /><path
     fill="#000000"
     d="m 76.996,49.821 c -2.674,-0.055 -5.327,-0.166 -8.001,-0.1 -1.591,0.053 -3.17,0.106 -4.761,0.196 -1.127,-0.387 -2.181,-1.069 -2.181,-1.563 0,0.407 -0.724,0.943 -1.608,1.337 -2.327,-1.182 -4.83,-4.117 -4.83,-6.137 0,2.58 -4.085,6.665 -6.666,6.665 2.581,0 6.667,4.086 6.667,6.666 0,-2.021 2.505,-4.955 4.831,-6.138 0.886,0.395 1.612,0.932 1.612,1.339 0,-0.493 1.057,-1.175 2.183,-1.563 1.592,0.09 3.184,0.144 4.776,0.198 2.674,0.064 5.303,-0.047 7.977,-0.1 C 82.347,50.532 88,50.415 93,50.271 v -0.1 C 88,50.026 82.348,49.909 76.996,49.821 Z"
     id="path4"
     clip-path="url(#clipPath430)"
     transform="translate(-1.5432099,-41.280864)" /></svg>
